<svg id="svg" xmlns="http://www.w3.org/2000/svg" xmlns:xlink="http://www.w3.org/1999/xlink" width="400" height="400" viewBox="0, 0, 400,400"><g id="svgg"><path id="path0" d="M120.458 87.125 C 101.130 98.183,89.000 106.897,89.000 109.722 C 89.000 117.841,134.242 139.114,136.485 132.048 C 137.512 128.812,135.950 127.296,128.695 124.488 C 118.393 120.500,103.395 113.448,102.650 112.242 C 101.606 110.554,118.270 107.877,133.500 107.286 C 183.986 105.328,228.281 128.467,245.114 165.591 C 248.665 173.422,248.692 173.000,244.634 173.000 C 227.277 173.000,211.200 194.770,217.037 210.369 C 227.951 239.541,266.438 221.846,261.312 190.014 C 260.779 186.706,260.506 184.000,260.705 184.000 C 260.904 184.000,263.194 185.078,265.794 186.395 C 306.841 207.196,314.246 265.979,281.450 310.678 C 280.201 312.380,280.094 313.308,280.961 314.928 C 286.291 324.886,303.885 295.653,308.532 269.119 C 315.989 226.540,297.252 188.874,262.000 175.578 C 257.704 173.957,257.330 173.485,253.741 165.153 C 235.494 122.783,194.359 99.500,137.750 99.500 C 125.787 99.500,116.000 99.421,116.000 99.325 C 116.000 99.229,120.050 96.833,125.000 94.000 C 134.210 88.730,135.938 86.338,132.800 83.200 C 130.950 81.350,130.053 81.635,120.458 87.125 M252.199 184.500 C 255.888 197.798,249.838 214.294,240.307 216.926 C 229.698 219.855,220.054 207.409,224.753 196.852 C 230.186 184.647,249.792 175.823,252.199 184.500 " stroke="none" fill="#000000" fill-rule="evenodd"></path></g></svg>